Coordinates
version=1
nRows=12
nColumns=24
inDegrees=yes

Units are S.I. units (second, meters, Newtons, ...)
Angles are in degrees.

endheader
time	pelvis_tilt	pelvis_list	pelvis_rotation	pelvis_tx	pelvis_ty	pelvis_tz	hip_flexion_r	hip_adduction_r	hip_rotation_r	knee_angle_r	ankle_angle_r	subtalar_angle_r	mtp_angle_r	hip_flexion_l	hip_adduction_l	hip_rotation_l	knee_angle_l	ankle_angle_l	subtalar_angle_l	mtp_angle_l	lumbar_extension	lumbar_bending	lumbar_rotation
      4.38000000	     -5.53099167	     13.55577249	     -4.90208736	     -0.88417799	     -0.03003176	     -0.32396479	      9.38956413	    -18.19061065	     -2.53480973	    -59.17225636	    -33.02539126	     -6.31538255	     24.70888200	     22.15653544	     15.10361053	     -9.38469598	    -18.19426237	      1.60296138	     -9.61787168	      3.89597123	      3.04242828	    -14.88837713	      7.03146912
      4.38500000	     -5.42573683	     13.54730829	     -4.90199922	     -0.87739507	     -0.02875533	     -0.32424235	     10.24935640	    -18.17300196	     -2.33232248	    -60.21640696	    -31.70112168	     -7.15748587	     23.75058158	     21.26396716	     15.17743064	     -9.60892040	    -17.57459707	      1.58353179	     -9.24185908	      6.16817503	      2.92336716	    -14.85818917	      6.76139366
      4.39000000	     -5.31859572	     13.55416179	     -4.92423164	     -0.87057934	     -0.02737241	     -0.32465312	     11.09082355	    -18.18144753	     -2.11448548	    -61.08670384	    -30.56507652	     -8.02678319	     23.98081229	     20.34857488	     15.31626419	     -9.61795419	    -16.95157961	      1.82702056	     -8.97156640	      6.35301225	      2.82071973	    -14.81882071	      6.51796283
      4.39500000	     -5.15361932	     13.41568742	     -5.06168368	     -0.86390980	     -0.02584366	     -0.32475904	     11.90299246	    -17.95431492	     -1.79858880	    -61.90076460	    -29.17421672	     -8.73731074	     23.42746615	     19.37917194	     15.23034678	     -9.87346424	    -16.30583122	      1.84201294	     -8.61932091	      8.25050682	      2.65263531	    -14.63996316	      6.36804085
      4.40000000	     -5.03464297	     13.29863245	     -5.14508340	     -0.85715828	     -0.02435023	     -0.32511509	     12.72453217	    -17.77519685	     -1.51273055	    -62.59429918	    -27.82971134	     -9.23574362	     23.70560414	     18.44888436	     15.23154045	     -9.87220136	    -15.68984910	      2.07570806	     -8.38709657	      8.44841246	      2.54183377	    -14.45678763	      6.17585730
      4.40500000	     -4.92567788	     13.08359724	     -5.23689422	     -0.85045721	     -0.02280112	     -0.32538069	     13.53321446	    -17.44956212	     -1.23609612	    -63.18777140	    -26.53419341	     -9.73620588	     23.90314576	     17.53410951	     15.11898081	     -9.81281562	    -15.11106437	      2.30417032	     -8.14198055	      8.68808647	      2.43162437	    -14.17839013	      6.03204035
      4.41000000	     -4.77711113	     12.89194937	     -5.36858924	     -0.84379823	     -0.02128445	     -0.32560769	     14.32412639	    -17.13357275	     -0.92836578	    -63.74506717	    -25.19898733	    -10.15820452	     23.84378710	     16.60336235	     15.01960966	     -9.91121249	    -14.53895823	      2.47616138	     -7.89272481	      9.19656535	      2.28345072	    -13.92240551	      5.84754127
      4.41500000	     -4.73110353	     12.60157814	     -5.42754055	     -0.83706069	     -0.01981713	     -0.32595742	     15.15762754	    -16.70021446	     -0.71226554	    -64.17954146	    -24.09075827	    -10.67684533	     23.96284207	     15.76040764	     14.84677422	     -9.70429259	    -13.99392393	      2.66603460	     -7.82983723	      9.32069559	      2.24131411	    -13.54727457	      5.69504501
      4.42000000	     -4.56748024	     12.37982860	     -5.58453257	     -0.83038463	     -0.01836277	     -0.32612032	     15.91719251	    -16.31343310	     -0.38953719	    -64.61988347	    -22.79092182	    -10.94332408	     23.55196022	     14.82521338	     14.71718530	     -9.72203481	    -13.45331415	      2.83586331	     -7.64499484	      9.68254125	      2.09218842	    -13.26365611	      5.57513236
      4.42500000	     -4.54247392	     12.08267161	     -5.63770307	     -0.82370413	     -0.01704731	     -0.32647632	     16.76455194	    -15.84766697	     -0.18299768	    -64.94450892	    -21.85957571	    -11.45047096	     23.62312955	     14.04101070	     14.53467110	     -9.47718012	    -12.97040742	      3.03457574	     -7.63473254	      9.71281937	      2.06583440	    -12.87804408	      5.40683565
      4.43000000	     -4.49348656	     11.77984949	     -5.72125685	     -0.81702706	     -0.01574394	     -0.32677970	     17.57669356	    -15.35398632	      0.05791123	    -65.20340691	    -20.93564115	    -11.86148544	     23.59628914	     13.23826293	     14.33877869	     -9.28222745	    -12.48998599	      3.21345916	     -7.62768371	      9.70422577	      2.02358289	    -12.49045807	      5.27032306
      4.43500000	     -4.17718316	     11.54337758	     -5.92676600	     -0.81026571	     -0.01427652	     -0.32689048	     18.12926840	    -14.94049664	      0.31413065	    -65.48378611	    -19.52067705	    -11.96252049	     21.69138764	     12.12160925	     14.22861327	     -9.22426376	    -11.93192150	      3.43583460	     -7.58291911	      9.33300238	      1.74005904	    -12.20141293	      5.22701565
